<?xml version="1.0" standalone="no"?><svg xmlns="http://www.w3.org/2000/svg" viewBox="0 0 1440 320"><path fill="#6949fd" fill-opacity="1" d="M0,224L13.3,197.3C26.7,171,53,117,80,122.7C106.7,128,133,192,160,213.3C186.7,235,213,213,240,181.3C266.7,149,293,107,320,96C346.7,85,373,107,400,122.7C426.7,139,453,149,480,133.3C506.7,117,533,75,560,69.3C586.7,64,613,96,640,117.3C666.7,139,693,149,720,128C746.7,107,773,53,800,48C826.7,43,853,85,880,96C906.7,107,933,85,960,106.7C986.7,128,1013,192,1040,197.3C1066.7,203,1093,149,1120,154.7C1146.7,160,1173,224,1200,218.7C1226.7,213,1253,139,1280,106.7C1306.7,75,1333,85,1360,85.3C1386.7,85,1413,75,1427,69.3L1440,64L1440,0L1426.7,0C1413.3,0,1387,0,1360,0C1333.3,0,1307,0,1280,0C1253.3,0,1227,0,1200,0C1173.3,0,1147,0,1120,0C1093.3,0,1067,0,1040,0C1013.3,0,987,0,960,0C933.3,0,907,0,880,0C853.3,0,827,0,800,0C773.3,0,747,0,720,0C693.3,0,667,0,640,0C613.3,0,587,0,560,0C533.3,0,507,0,480,0C453.3,0,427,0,400,0C373.3,0,347,0,320,0C293.3,0,267,0,240,0C213.3,0,187,0,160,0C133.3,0,107,0,80,0C53.3,0,27,0,13,0L0,0Z"></path></svg>